<svg width="269" height="229" viewBox="0 0 269 229" fill="none" xmlns="http://www.w3.org/2000/svg">
<path d="M161.5 18C160.458 21.0033 102.499 172.007 35.4995 188.003C35.2266 188.069 44.7416 210.533 44.9995 210.503C119.5 202.003 180.5 49.5 180.5 49.5L209.5 143H143.5L128.5 172H245.5L196.5 18H161.5Z" fill="black"/>
<path d="M61 18H23L81 118.5L96 87L61 18Z" fill="black"/>
<path d="M161.5 18C160.458 21.0033 102.499 172.007 35.4995 188.003C35.2266 188.069 44.7416 210.533 44.9995 210.503C119.5 202.003 180.5 49.5 180.5 49.5L209.5 143H143.5L128.5 172H245.5L196.5 18H161.5Z" stroke="black"/>
<path d="M61 18H23L81 118.5L96 87L61 18Z" stroke="black"/>
</svg>
